<?xml version="1.0" encoding="utf-8"?>
<!-- Generator: Adobe Illustrator 19.1.0, SVG Export Plug-In . SVG Version: 6.00 Build 0)  -->
<svg version="1.1" id="Ebene_1" xmlns="http://www.w3.org/2000/svg" xmlns:xlink="http://www.w3.org/1999/xlink" x="0px" y="0px"
	 viewBox="-10 140.9 574 560" style="enable-background:new -10 140.9 574 560;" xml:space="preserve">
<style type="text/css">
	.st0{fill:#3B3C43;}
	.st1{clip-path:url(#SVGID_2_);fill:#FFFFFF;stroke:#FFFFFF;stroke-width:0.5;stroke-miterlimit:10;}
</style>
<polygon class="st0" points="277,140.9 34.5,281.1 34.5,561.1 277,700.9 519.5,561.1 519.5,281.1 "/>
<g>
	<g>
		<g>
			<defs>
				<rect id="SVGID_1_" x="34.5" y="145.8" width="484.9" height="555.1"/>
			</defs>
			<clipPath id="SVGID_2_">
				<use xlink:href="#SVGID_1_"  style="overflow:visible;"/>
			</clipPath>
			<path class="st1" d="M352.1,537.4l-53.8-91.9c-1-2,0.5-3.5,0.5-3.5l52.8-56.8c1.5-1.5,1.5-2.5,1.5-3.5c-0.5-2-2-3-2.5-3
				l-134.8-77.5c-0.5-0.5-1-0.5-1-0.5c-0.5,0-1-0.5-1.5-0.5c-1.5,0-2.5,1-2.5,2.5v236.5c0,1.5,1,2.5,2.5,2.5s2.5-1,2.5-2.5V306.3
				l85.9,78c0.5,0.5,0.5,1,0.5,1c0,0.5-0.5,1-0.5,1.5l-53.3,51.9c-1.5,1.5-1.5,2.5-1.5,3.5c0,2,1.5,3.5,1.5,3.5l100.2,94.8
				c1,1,1.5,1.5,2.5,1.5c0.5,0,1-0.5,1.5-1C353,539.9,352.6,538.9,352.1,537.4"/>
		</g>
	</g>
</g>
</svg>
