<?xml version="1.0" standalone="no"?>
<!DOCTYPE svg PUBLIC "-//W3C//DTD SVG 20010904//EN"
 "http://www.w3.org/TR/2001/REC-SVG-20010904/DTD/svg10.dtd">
<svg version="1.0" xmlns="http://www.w3.org/2000/svg"
 width="332.000000pt" height="332.000000pt" viewBox="0 0 332.000000 332.000000"
 preserveAspectRatio="xMidYMid meet">
<metadata>
Created by potrace 1.11, written by Peter Selinger 2001-2013
</metadata>
<g transform="translate(0.000000,332.000000) scale(0.100000,-0.100000)"
fill="#000000" stroke="none">
<path d="M0 1660 l0 -1660 1660 0 1660 0 0 1660 0 1660 -1660 0 -1660 0 0
-1660z m1390 795 c69 -40 233 -134 365 -210 132 -76 283 -162 335 -193 112
-64 120 -70 120 -89 0 -14 -138 -168 -323 -361 -64 -66 -69 -75 -59 -96 6 -14
78 -138 160 -278 200 -341 225 -386 217 -398 -17 -28 -12 -31 -414 349 -276
261 -361 346 -361 359 0 7 89 100 198 207 l197 194 -50 48 c-27 26 -95 89
-150 138 -55 50 -105 95 -111 100 -6 6 -55 51 -110 101 -54 50 -116 106 -136
124 l-38 32 0 -831 0 -831 -25 0 -25 0 0 864 c0 682 3 865 13 869 15 5 38 -6
197 -98z"/>
</g>
</svg>
