<?xml version="1.0" encoding="utf-8"?>
<!-- Generator: Adobe Illustrator 19.1.0, SVG Export Plug-In . SVG Version: 6.00 Build 0)  -->
<svg version="1.1" id="Ebene_1" xmlns="http://www.w3.org/2000/svg" xmlns:xlink="http://www.w3.org/1999/xlink" x="0px" y="0px"
	 viewBox="-179 178.5 236.5 474.4" style="enable-background:new -179 178.5 236.5 474.4;" xml:space="preserve">
<style type="text/css">
	.st0{fill:#DDD800;}
	.st1{fill:none;stroke:#000000;stroke-width:2;stroke-linecap:round;stroke-linejoin:round;}
	.st2{clip-path:url(#SVGID_2_);fill:none;stroke:#000000;stroke-width:2;stroke-linecap:round;stroke-linejoin:round;}
	.st3{fill:none;stroke:#3B3C43;stroke-width:2;stroke-linecap:round;stroke-linejoin:round;}
</style>
<path class="st0" d="M-36.4,639.6l-0.9-0.7l0.1-0.6l0.3-0.7l0.1-0.8h-1l-0.5-0.6l0.8-0.8l0.1-0.6l-0.9-0.3l0.1-0.6l1.3-0.2l2-0.9
	l0.6-1.2l2.1-2.6l-0.5-2.1l0.6-1.1l1.9,0.1l1.3-1l0.4-4l1.4-1.8l0.2-1.1l-1.3-0.4l-0.9-1.4H-32l-2.3-0.9l-0.1-1.6l-0.8-1.4h-2.1
	l-1.2-1.9l-1.1-0.5l-0.1,0.6l-1.9,0.1l-0.7-1l-2.1-0.4l-1.7,1.9l-2.6-0.4l-0.2-3l-1.9-0.4l0.8-1.5l-0.2-0.9l-2.6,1.7l-1.5-0.2
	l-0.6-1.2l0.4-1.3l0.9-1.6l2-1h3.9v1.2l1.4,0.6l-0.1-2.1l1-1l2.1-1.4l0.1-0.9l2.1-2.1l2.1-1.2l-0.2-0.1l1.5-1.4l0.6,0.1l0.2,0.3
	l0.6-0.6l0.1-0.1l-0.6-0.1l-0.6-0.2v-0.6l0.4-0.3h0.7l0.4,0.1l0.3,0.6l0.4-0.1v-0.1l0.1,0.1l1-0.1l0.1-0.5l0.6,0.1v0.6l-0.6,0.4
	l0.1,0.6l1.9,0.6l0,0h0.4v-0.8l-1.4-0.6l-0.1-0.4l1.2-0.4l0.1-1.1l-1.3-0.8l-0.1-1.9l-1.7,0.9h-0.6l0.1-1.5l-2.4-0.6l-1,0.7v2.3
	l-1.8,0.6l-0.7,1.5l-0.8,0.1v-1.9l-1.6-0.2l-0.9-0.6l-0.4-1.2l2.9-1.7l1.4-0.4l0.1,1l0.8-0.1l0.1-0.5l0.9-0.1v-0.1l-0.4-0.1
	l-0.1-0.5l1.1-0.1l0.6-0.6l0.1-0.1l0,0l0.2-0.2l2.2-0.3l1,0.9l-2.5,1.4l3.2,0.8l0.4-1.1h1.4l0.5-0.9l-1-0.2v-1.5l-3.1-1.4l-2.1,0.2
	l-1.2,0.6l0.1,1.6l-1.3-0.2l-0.2-0.9l1.2-1.1l-2.2-0.1l-0.6,0.2l-0.3,0.7l0.9,0.1L-41,584l-1.4,0.1l-0.2,0.6l-2.1,0.1l-0.1-1.1h1.6
	l1.2-1.2l-0.6-0.4l-0.9,0.9l-1.4-0.1l-0.9-1.2h-1.9l-1.9,1.5h1.8l0.1,0.5l-0.5,0.4l2,0.1l0.3,0.7l-2.2-0.1l-0.1-0.6l-1.4-0.3
	l-0.7-0.4h-3.3l-1.1,0.7l-0.7-0.1l-0.8-0.4l-2.3-0.7h-4.2l-2.4,1.6l-1.6,0.3l-0.7,0.6l1.1,0.1v0.5H-69l-1,0.7l1.2,1.1h3.4l0.5-0.5
	h2.9l1,0.9l-0.1,1.4l0.9,0.8l-0.7,0.5l0.1,1.9l-2.6,3.1v2.9l1.4,0.6v2.6l1.4,2.3l1.1,0.1l0.1-0.8l-1.3-1.9l-0.2-1.9h0.7l0.3,1.9
	l1.9,2.7l-0.5,0.9l1.1,1.8l2.9,0.7v-0.5l1.1,0.1l-0.1,0.9l0.9,0.1l1.4,0.4l2,2.3l2.6,0.2l0.2,2.1l-1.7,1.2l-0.1,1.9l-0.2,1.1
	l2.5,3.1l0.2,1.1c0,0,0.9,0.2,1,0.2s2.1,1.5,2.1,1.5v5.7l0.7,0.2l-0.5,2.6l1.1,1.6l-0.2,2.6l1.5,2.7l1.7,1.5
	c-4.3,2-9.2,3.1-14.3,3.1c-5.6,0-10.9-1.4-15.5-3.8l0.9-0.6l1.1-0.5l1.1-0.6l-0.4-0.7l-0.6,0.1v-1.1l-0.9-0.1l-0.1,2.1l-1,0.6
	l-1.1,0.1c-1.3-0.7-2.5-1.5-3.6-2.4l1.3-1.2l1-2.2l-0.4-1.6l-1.5-1.3l-0.1-2.4l-1-1.7l-0.9-0.1l-0.4,3.1l-1.7-0.1l-0.4-0.3l-0.1-1.2
	l0.9,0.1l0.8-0.7l-1.6-0.9h-1.9l-1.4,1.9h-0.6v-0.6l-0.5,0.1c-0.4-0.6-0.7-1.2-1.1-1.8c-0.1-0.1-0.1-0.3-0.2-0.4
	c-0.1-0.1-0.1-0.2-0.2-0.4l0.1,0.1l0.1-0.4H-83c-0.1-0.2-0.2-0.4-0.4-0.7l0.5-0.1v-2.7l-1.4,0.6c-0.1-0.4-0.3-0.7-0.4-1.1
	c-0.4-1-0.6-2.1-0.9-3.1c-0.6-2.3-0.9-4.7-0.9-7.1l0.2-0.1l1.3-1.1l-0.2-1.9l-1.1-1.2c0.1-1,0.2-2,0.4-3l2.8,2.1l1-0.3l-0.6-0.9
	l-1.9-1.1l0.1-1.6h2.2l0.1-2.1l-0.9-1.1l0.5-0.6l1.1,1.1l0.4-0.4l-1.4-1.6l-1.4-0.1c0.3-0.6,0.5-1.2,0.8-1.9l0.9,0.1l3-2l0.5,0.6
	l-0.6,1v1.1l2.7,2.2l0.9-0.4l-0.4-1.5L-78,594l2.6-0.1v-0.7l1.2-0.2l-0.9-0.6l0.1-0.5l2.6,0.4l0.5-0.4l-3.5-1.5l-4.6-0.2
	c6.2-8.8,16.5-14.6,28-14.6c18.9,0,34.2,15.3,34.2,34.2C-18.3,622.5-25.6,633.8-36.4,639.6 M-52.5,572.2c-13.3,0-24.9,7-31.6,17.5
	c-3.6,5.8-5.7,12.5-5.7,19.8c0,1.1,0.1,2.2,0.1,3.3c0.2,2.4,0.6,4.7,1.3,7c0.4,1.1,0.7,2.3,1.1,3.4c0.9,2.2,1.9,4.3,3.2,6.3
	c2.4,3.6,5.3,6.9,8.8,9.5c0.9,0.7,1.9,1.4,2.9,2.1c0.4,0.3,0.9,0.5,1.3,0.7c5.5,3.1,11.8,5,18.5,5c20.5,0,37.3-16.7,37.3-37.3
	C-15.2,588.8-31.9,572.2-52.5,572.2"/>
<polygon class="st0" points="-72,236.9 -73.7,227.4 -82.8,224 -90.2,230.3 -88.6,239.9 -79.4,243.2 "/>
<polygon class="st0" points="-98.8,292.2 -99.4,288.9 -102.5,287.8 -105,289.9 -104.5,293.2 -101.4,294.3 "/>
<polygon class="st0" points="-101.2,260.4 -101.7,257.2 -104.8,256 -107.3,258.2 -106.7,261.4 -103.7,262.5 "/>
<polygon class="st0" points="-110.8,215.7 -109.3,212.8 -111,210 -114.3,210.1 -115.9,213 -114.1,215.8 "/>
<polygon class="st0" points="-68.9,211.1 -69.5,207.9 -72.5,206.8 -75.1,208.9 -74.5,212.1 -71.4,213.3 "/>
<polygon class="st0" points="-92.1,191.6 -94.5,193.7 -94,197 -90.9,198.1 -88.4,196 -89,192.7 "/>
<polygon class="st0" points="-90.2,244.2 -90.8,241 -93.9,239.9 -96.4,242 -95.8,245.2 -92.8,246.3 "/>
<polygon class="st0" points="-90.6,215 -91.1,211.7 -94.2,210.6 -96.7,212.7 -96.1,216 -93,217.1 "/>
<polygon class="st0" points="-96.3,287.5 -95,285.8 -95.8,283.8 -97.9,283.4 -99.2,285.1 -98.5,287.1 "/>
<polygon class="st0" points="-72.1,222.6 -70.8,220.9 -71.6,218.9 -73.7,218.6 -75.1,220.3 -74.2,222.3 "/>
<polygon class="st0" points="-93.1,226.5 -92.3,225.5 -92.8,224.2 -94.1,224 -95,225 -94.5,226.3 "/>
<polygon class="st0" points="-104,251.1 -103.1,250 -103.7,248.7 -105,248.5 -105.9,249.6 -105.3,250.8 "/>
<polygon class="st0" points="-102.5,302.7 -100.5,301.7 -100.5,299.5 -102.2,298.4 -104.2,299.4 -104.3,301.5 "/>
<polygon class="st0" points="-98,267.7 -96.6,265.9 -97.4,264 -99.5,263.7 -100.9,265.4 -100.1,267.4 "/>
<polygon class="st0" points="-119.6,239.6 -117.7,238.6 -117.6,236.4 -119.4,235.2 -121.3,236.2 -121.4,238.4 "/>
<polygon class="st0" points="-139.9,229.5 -137.9,228.5 -137.8,226.3 -139.7,225.1 -141.6,226.1 -141.7,228.2 "/>
<polygon class="st0" points="-112.1,247.3 -111.8,245.2 -113.4,243.9 -115.5,244.6 -115.9,246.7 -114.2,248.1 "/>
<polygon class="st0" points="-105.8,229.3 -104.5,227.6 -105.3,225.6 -107.4,225.3 -108.8,227 -107.9,229 "/>
<polygon class="st0" points="-101.6,271.2 -105,275.5 -102.9,280.6 -97.5,281.3 -94.3,277 -96.3,272 "/>
<polygon class="st0" points="-92.8,248.8 -96.8,249.1 -98.6,252.7 -96.3,256 -92.3,255.8 -90.6,252.1 "/>
<polygon class="st0" points="-125.3,217.8 -128.8,224.3 -124.9,230.6 -117.5,230.3 -114.1,223.8 -118,217.6 "/>
<polygon class="st0" points="-76.3,195.4 -80.2,197.9 -80.1,202.5 -75.9,204.7 -72,202.2 -72.2,197.6 "/>
<polygon class="st0" points="-101.2,230.2 -106.6,230.9 -108.7,235.9 -105.3,240.2 -100,239.4 -97.9,234.4 "/>
<polygon class="st0" points="-129.1,201.4 -134.5,202.2 -136.5,207.2 -133.1,211.4 -127.8,210.6 -125.8,205.7 "/>
<polygon class="st0" points="-83.7,217.1 -82.9,216 -83.4,214.7 -84.7,214.6 -85.6,215.6 -85.1,216.9 "/>
<polygon class="st0" points="-95.7,206.1 -94.3,205.7 -94,204.4 -94.9,203.4 -96.3,203.7 -96.6,205.1 "/>
<polygon class="st0" points="-96.7,297.4 -95.3,297.1 -95,295.7 -95.9,294.7 -97.3,295.1 -97.6,296.4 "/>
<polygon class="st0" points="-133,233.6 -131.7,233.2 -131.2,232 -132.2,231 -133.5,231.3 -134,232.6 "/>
<polygon class="st0" points="-111.4,198.7 -109.1,199.5 -107.2,198 -107.6,195.6 -109.9,194.8 -111.7,196.2 "/>
<polygon class="st0" points="-135.5,219.9 -134.2,219.6 -133.8,218.3 -134.7,217.3 -136.1,217.6 -136.5,218.9 "/>
<polygon class="st0" points="-64.3,226.6 -63,226.3 -62.6,225 -63.6,224 -64.9,224.3 -65.3,225.6 "/>
<polygon class="st0" points="-67.2,191.6 -68.5,191.9 -68.9,193.3 -68,194.3 -66.6,193.9 -66.3,192.6 "/>
<polygon class="st0" points="-15.7,322.4 -17.5,319.8 -20.8,320 -22.2,323 -20.3,325.7 -17,325.4 "/>
<polygon class="st0" points="-1.3,324.7 -1.8,321.5 -4.9,320.4 -7.4,322.5 -6.8,325.7 -3.8,326.8 "/>
<polygon class="st0" points="-24.1,313 -22.1,310.3 -23.3,307.3 -26.6,306.9 -28.6,309.4 -27.3,312.5 "/>
<polygon class="st0" points="-25.3,332.7 -25.8,329.4 -29,328.2 -31.5,330.4 -30.9,333.6 -27.8,334.7 "/>
<polygon class="st0" points="-18,353.1 -18.6,349.8 -21.7,348.7 -24.2,350.8 -23.6,354 -20.6,355.2 "/>
<polygon class="st0" points="-5.1,337.1 -4.7,334.9 -6.4,333.5 -8.4,334.3 -8.7,336.4 -7.1,337.8 "/>
<polygon class="st0" points="-10.7,356.5 -10,355.4 -10.4,354.1 -11.8,353.9 -12.7,355 -12.1,356.2 "/>
<polygon class="st0" points="1.8,333.7 3.7,332.7 3.8,330.5 2,329.3 0.1,330.3 0,332.5 "/>
<polygon class="st0" points="-21.8,340.2 -19.9,339.2 -19.7,337.1 -21.6,335.9 -23.5,336.9 -23.6,339 "/>
<polygon class="st0" points="-39.6,344.4 -38.3,342.7 -39.1,340.7 -41.2,340.4 -42.6,342.1 -41.7,344.1 "/>
<polygon class="st0" points="-41.8,319.6 -46.4,325.5 -43.6,332.3 -36.2,333.3 -31.8,327.5 -34.5,320.7 "/>
<polygon class="st0" points="-8.2,310.8 -12.8,311.5 -14.5,315.8 -11.7,319.5 -7,318.8 -5.3,314.5 "/>
<polygon class="st0" points="-30.8,345.3 -36.1,346.1 -38.2,351 -34.8,355.3 -29.5,354.6 -27.4,349.5 "/>
<polygon class="st0" points="-8.4,339.9 -13.4,338.1 -17.6,341.6 -16.6,346.8 -11.6,348.7 -7.4,345.2 "/>
<polygon class="st0" points="-14.7,330.2 -13.9,329.1 -14.4,327.8 -15.8,327.6 -16.6,328.7 -16.1,330 "/>
<polygon class="st0" points="-29.5,321.1 -28.1,320.8 -27.8,319.5 -28.7,318.5 -30,318.8 -30.4,320.1 "/>
<polygon class="st0" points="-31.8,341.6 -30.5,341.2 -30.1,339.9 -31,338.9 -32.4,339.2 -32.8,340.6 "/>
<polygon class="st0" points="-38.7,315.6 -36.4,316.5 -34.5,314.9 -34.9,312.5 -37.2,311.6 -39,313.2 "/>
<polygon class="st0" points="-42.2,337 -40.8,336.6 -40.5,335.4 -41.4,334.4 -42.7,334.6 -43.1,336 "/>
<polygon class="st0" points="-1.8,346.1 -0.4,345.7 0,344.3 -1,343.3 -2.3,343.7 -2.7,345.1 "/>
<polygon class="st0" points="-16.6,309.3 -15.3,309 -14.9,307.6 -15.9,306.6 -17.2,307 -17.6,308.3 "/>
<g>
	<g>
		<path class="st1" d="M-25.3,583.1c0,0,50.8-14.1,14.3,23.8C-50.2,647.6-94.5,651-94.5,651"/>
	</g>
	<g>
		<defs>
			<polygon id="SVGID_1_" points="-178,172.2 57.5,172.2 56.5,651.9 -178,651.9 			"/>
		</defs>
		<clipPath id="SVGID_2_">
			<use xlink:href="#SVGID_1_"  style="overflow:visible;"/>
		</clipPath>
		<path class="st2" d="M-167.5,193l-4.5-3.2l0-5.1l4.5-2.9l4.9,2.9l0,5.4L-167.5,193v40.7c0,3.1,2.5,5.7,5.7,5.7
			c9.5,0,27.8-0.1,29.5,0c2.4,0.1,4.2,1.7,5.8,3.5l19.6,21.3v44.4l14.5-10.5v-33.9c0,0,19.8-21.4,20.7-22.4c1.1-1.3,2.6-2.4,5.4-2.4
			H45.4c6.2,0,9.4,1.9,9.4,9.4v66.9V362c0,5.6-0.4,12.9-12.3,12.9c-12,0-50.1,0-50.1,0s-0.4-10.2,2.2-13.3
			c4.7-5.6,16.7-13,16.7-31.1c0-10.2-7.6-32.7-32.6-32.7c-27.2,0-33,24.4-33,32.9c0,3.3,0.6,13.9,9.3,22.9
			c8.7,9.1,9.3,11.4,9.3,24.4h6.2v-11.5c0,0,3.6,5.1,5.8,6.1c2.2,1.1,7.5,0.9,5.8-5.1c-1.6-5.8-7.4-6-7.1-1.3
			c0.5,6.1,8.2,3.4,10.3,0.9c2.2-2.5,0.6,10.8,0.6,10.8H-7v4.3h-28.3l-0.7,5.4l28.6,0.1L-7,392c0,0-154.2,0.1-158.5,0.1
			s-11.6-0.8-11.6,10.4v74.3v30.6c0,5.1,0.4,11.9,11.6,11.9h126.8c1.7,0,7.7-0.4,7.7-7.9v-69.5c0-5.1-4.6-5.3-5.3-5.3h-95.4
			c-5.1,0-4.8,4.8-4.8,4.8s0,53.8,0,55.6c-0.1,12.6-1.1,15.7,7.2,15.7c6.6,0,63.6,0,63.6,0l26.6,0.4V449H-129l-0.5,81.8
			c0,3.1,2.5,5.7,5.6,5.7l173.9,2l1,0.1c3,0.2,5.3,2.8,5.2,5.8C55.7,564,55.8,624,55.8,624s2.6,13.3-12.3,14
			c-7.8,0.3-131.9,0-131.9,0s-35.7,0.7-1.3-21.7"/>
	</g>
</g>
<polygon class="st0" points="-52.4,501 -54.1,491.4 -63.3,488.1 -70.7,494.4 -69,503.9 -59.9,507.2 "/>
<polygon class="st0" points="-91.3,479.8 -89.8,476.8 -91.5,474 -94.8,474.1 -96.3,477 -94.5,479.8 "/>
<polygon class="st0" points="-49.4,475.2 -49.9,471.9 -53,470.8 -55.6,472.9 -55,476.1 -51.9,477.3 "/>
<polygon class="st0" points="-68.9,460 -69.5,456.7 -72.5,455.6 -75.1,457.7 -74.5,460.9 -71.4,462.1 "/>
<polygon class="st0" points="-71,479 -71.6,475.8 -74.7,474.6 -77.2,476.8 -76.7,480 -73.5,481.1 "/>
<polygon class="st0" points="-52.6,486.6 -51.3,485 -52.1,482.9 -54.2,482.6 -55.6,484.3 -54.7,486.3 "/>
<polygon class="st0" points="-73.6,490.6 -72.7,489.4 -73.2,488.2 -74.6,488 -75.4,489.1 -74.9,490.4 "/>
<polygon class="st0" points="-120.3,493.4 -118.4,492.4 -118.3,490.3 -120.1,489.2 -122.1,490.1 -122.1,492.3 "/>
<polygon class="st0" points="-86.3,493.4 -84.9,491.7 -85.8,489.7 -87.9,489.3 -89.3,491 -88.4,493.1 "/>
<polygon class="st0" points="-105.8,481.8 -109.3,488.4 -105.4,494.6 -98,494.4 -94.5,487.8 -98.5,481.5 "/>
<polygon class="st0" points="-56.8,459.4 -60.7,461.9 -60.6,466.6 -56.4,468.8 -52.4,466.3 -52.6,461.6 "/>
<polygon class="st0" points="-81.7,494.1 -87.1,494.9 -89.1,499.9 -85.8,504.2 -80.4,503.5 -78.4,498.4 "/>
<polygon class="st0" points="-109.6,465.4 -114.9,466.1 -116.9,471.2 -113.6,475.4 -108.2,474.7 -106.2,469.6 "/>
<polygon class="st0" points="-64.2,481.1 -63.3,480 -63.8,478.8 -65.2,478.5 -66,479.7 -65.5,480.9 "/>
<polygon class="st0" points="-76.2,470.1 -74.8,469.8 -74.4,468.4 -75.4,467.4 -76.7,467.8 -77.1,469.1 "/>
<polygon class="st0" points="-113.4,497.6 -112.1,497.3 -111.7,496 -112.7,495 -114,495.3 -114.4,496.6 "/>
<polygon class="st0" points="-91.8,462.7 -89.6,463.6 -87.7,462.1 -88.1,459.7 -90.3,458.8 -92.2,460.3 "/>
<polygon class="st0" points="-116,484 -114.6,483.6 -114.3,482.2 -115.2,481.3 -116.6,481.6 -116.9,483 "/>
<polygon class="st0" points="-44.8,490.7 -43.4,490.3 -43.1,489 -44.1,488 -45.4,488.4 -45.8,489.7 "/>
<polygon class="st0" points="-48.4,458.2 -47.1,457.9 -46.7,456.6 -47.7,455.6 -49,455.9 -49.4,457.3 "/>
<polygon class="st0" points="-32,599 -32.1,599.5 -31.4,599.4 -31.3,598.9 -31.8,598.6 "/>
<g>
	<g>
		<path class="st0" d="M-41.1,605.3l0.1-0.5l-0.5-0.1l0.1,0.6H-41.1z"/>
	</g>
</g>
<g>
	<g>
		<path class="st0" d="M-27,586.6l-0.1,0.3h-0.5v0.3h0.1v0.1h0.3l0.2-0.1l0.1-0.3h0.3l0.1-0.2l-0.2-0.1H-27z"/>
	</g>
</g>
<g>
	<g>
		<path class="st3" d="M-91.1,651.6"/>
		<path class="st3" d="M-7.7,604.5"/>
	</g>
</g>
</svg>
