<?xml version="1.0" encoding="utf-8"?>
<!-- Generator: Adobe Illustrator 19.1.0, SVG Export Plug-In . SVG Version: 6.00 Build 0)  -->
<svg version="1.1" id="Ebene_1" xmlns="http://www.w3.org/2000/svg" xmlns:xlink="http://www.w3.org/1999/xlink" x="0px" y="0px"
	 viewBox="0 0 262.2 371.1" style="enable-background:new 0 0 262.2 371.1;" xml:space="preserve">
<style type="text/css">
	.st0{fill:#3B3E43;}
</style>
<path id="behance-icon" class="st0" d="M-891.7,70.7c6.8,9.6,10.3,21,10.3,34.3c0,13.7-3.5,24.7-10.4,33.1
	c-3.9,4.6-9.6,8.9-17.1,12.8c11.5,4.1,20.1,10.8,26,19.8c5.8,9,8.8,20,8.8,32.9c0,13.3-3.3,25.3-10,35.8c-4.2,7-9.6,12.9-15.9,17.6
	c-7.2,5.4-15.6,9.2-25.3,11.2c-9.7,2-20.3,3.1-31.7,3.1h-101.1V46.9h108.5C-922.5,47.2-903.1,55.2-891.7,70.7z M-1013.5,85.8v49.5
	h54.5c9.7,0,17.6-1.8,23.8-5.5c6.1-3.7,9.1-10.3,9.1-19.7c0-10.4-4-17.4-12-20.7c-6.9-2.4-15.8-3.5-26.5-3.5H-1013.5L-1013.5,85.8z
	 M-1013.5,172.5v59.8h54.5c9.7,0,17.3-1.3,22.7-3.9c9.8-4.9,14.7-14.2,14.7-28c0-11.7-4.7-19.7-14.3-24c-5.3-2.5-12.8-3.7-22.4-3.8
	L-1013.5,172.5L-1013.5,172.5z M-740.4,103.1c11.6,5.2,21.1,13.3,28.7,24.6c6.8,9.8,11.2,21.3,13.2,34.3c1.1,7.6,1.7,18.6,1.4,33
	h-120.8c0.7,16.7,6.5,28.3,17.4,35c6.7,4.1,14.6,6.2,23.9,6.2c9.9,0,17.9-2.5,24.1-7.6c3.3-2.7,6.3-6.6,8.9-11.4h44.3
	c-1.1,9.8-6.5,19.8-16,30c-14.9,16.1-35.7,24.2-62.4,24.2c-22.1,0-41.6-6.8-58.4-20.4c-16.9-13.6-25.3-35.8-25.3-66.5
	c0-28.8,7.6-50.8,22.9-66.1s35-23,59.4-23C-764.9,95.3-751.9,97.9-740.4,103.1z M-805.3,140.5c-6.1,6.3-10,14.9-11.6,25.7h74.7
	c-0.8-11.5-4.6-20.3-11.6-26.2s-15.5-8.9-25.7-8.9C-790.5,131.1-799.1,134.2-805.3,140.5z M-733.4,59.8h-97.5v22.6h97.5V59.8z"/>
<g>
	<path id="xing-icon_1_" class="st0" d="M-1237.2,378.5l-78.4-142.2l118.7-210.9h72.6L-1243,236.3l77.6,142.2H-1237.2z
		 M-1342.6,95.3h-72.7l40.7,70.8l-60.5,106.8h72.3l60.6-107L-1342.6,95.3z"/>
</g>
<g>
	<path id="linkedin-icon_1_" class="st0" d="M-564,41.3c0,17.8-14.3,32.3-32,32.3c-17.7,0-32-14.5-32-32.3S-613.6,9-595.9,9
		C-578.3,9-564,23.5-564,41.3z M-568.6,96.4h-54.1v174.9h54.1V96.4z M-482.1,96.4H-534v174.9h51.9c0,0,0-64.9,0-91.8
		c0-24.6,11.3-39.2,33-39.2c19.9,0,29.5,14.1,29.5,39.2s0,91.8,0,91.8h53.9c0,0,0-63.9,0-110.7s-26.5-69.5-63.6-69.5
		s-52.7,28.9-52.7,28.9L-482.1,96.4L-482.1,96.4z"/>
</g>
<path id="twitter-icon" class="st0" d="M-44.6,102.9c-9.3,4.1-19.3,6.9-29.8,8.2c10.7-6.4,18.9-16.6,22.8-28.7
	c-10,5.9-21.1,10.3-32.9,12.6c-9.5-10.1-22.9-16.4-37.9-16.4c-33.5,0-58.1,31.2-50.5,63.7c-43.1-2.2-81.3-22.8-106.9-54.2
	c-13.6,23.3-7,53.8,16.1,69.3c-8.5-0.3-16.5-2.6-23.5-6.5c-0.6,24,16.7,46.5,41.6,51.5c-7.3,2-15.3,2.4-23.4,0.9
	c6.6,20.6,25.8,35.6,48.5,36c-21.8,17.1-49.3,24.7-76.8,21.5c23,14.7,50.2,23.3,79.5,23.3c96.3,0,150.7-81.4,147.5-154.3
	C-60.4,122.4-51.6,113.3-44.6,102.9z"/>
<path id="facebook-icon" class="st0" d="M88.4,95.9H57.9v44.4h30.5v130.3h58.7V139.7H188l4.4-43.8h-45.3c0,0,0-16.4,0-25
	c0-10.3,2.3-14.4,13.5-14.4c9,0,31.7,0,31.7,0V11c0,0-33.5,0-40.6,0c-43.6,0-63.3,17.1-63.3,49.9C88.4,89.5,88.4,95.9,88.4,95.9z"/>
</svg>
