<?xml version="1.0" encoding="utf-8"?>
<!-- Generator: Adobe Illustrator 19.1.0, SVG Export Plug-In . SVG Version: 6.00 Build 0)  -->
<svg version="1.1" id="Ebene_1" xmlns="http://www.w3.org/2000/svg" xmlns:xlink="http://www.w3.org/1999/xlink" x="0px" y="0px"
	 viewBox="0 0 262.2 371.1" style="enable-background:new 0 0 262.2 371.1;" xml:space="preserve">
<style type="text/css">
	.st0{fill:#3B3E43;}
</style>
<path id="twitter-icon" class="st0" d="M259.9,94.7c-9.3,4.1-19.3,6.9-29.8,8.2c10.7-6.4,18.9-16.6,22.8-28.7
	c-10,5.9-21.1,10.3-32.9,12.6c-9.5-10.1-22.9-16.4-37.9-16.4c-33.5,0-58.1,31.2-50.5,63.7c-43.1-2.2-81.3-22.8-106.9-54.2
	c-13.6,23.3-7,53.8,16.1,69.3c-8.5-0.3-16.5-2.6-23.5-6.5c-0.6,24,16.7,46.5,41.6,51.5c-7.3,2-15.3,2.4-23.4,0.9
	c6.6,20.6,25.8,35.6,48.5,36C62,248.1,34.5,255.8,7,252.5c23,14.7,50.2,23.3,79.5,23.3c96.3,0,150.7-81.4,147.5-154.3
	C244.1,114.2,252.9,105.1,259.9,94.7z"/>
</svg>
