<?xml version="1.0" encoding="utf-8"?>
<!-- Generator: Adobe Illustrator 19.1.0, SVG Export Plug-In . SVG Version: 6.00 Build 0)  -->
<svg version="1.1" id="Ebene_1" xmlns="http://www.w3.org/2000/svg" xmlns:xlink="http://www.w3.org/1999/xlink" x="0px" y="0px"
	 viewBox="0 0 310.9 371.1" style="enable-background:new 0 0 310.9 371.1;" xml:space="preserve">
<style type="text/css">
	.st0{fill:#3B3E43;}
</style>
<path id="behance-icon" class="st0" d="M543.4,63.3c6.8,9.6,10.3,21,10.3,34.3c0,13.7-3.5,24.7-10.4,33.1
	c-3.9,4.6-9.6,8.9-17.1,12.8c11.5,4.1,20.1,10.8,26,19.8c5.8,9,8.8,20,8.8,32.9c0,13.3-3.3,25.3-10,35.8c-4.2,7-9.6,12.9-15.9,17.6
	c-7.2,5.4-15.6,9.2-25.3,11.2c-9.7,2-20.3,3.1-31.7,3.1H376.8V39.5h108.5C512.6,39.8,532,47.8,543.4,63.3z M421.6,78.4v49.5h54.5
	c9.7,0,17.6-1.8,23.8-5.5c6.1-3.7,9.1-10.3,9.1-19.7c0-10.4-4-17.4-12-20.7c-6.9-2.4-15.8-3.5-26.5-3.5H421.6L421.6,78.4z
	 M421.6,165.1v59.8h54.5c9.7,0,17.3-1.3,22.7-3.9c9.8-4.9,14.7-14.2,14.7-28c0-11.7-4.7-19.7-14.3-24c-5.3-2.5-12.8-3.7-22.4-3.8
	L421.6,165.1L421.6,165.1z M694.8,95.7c11.6,5.2,21.1,13.3,28.7,24.6c6.8,9.8,11.2,21.3,13.2,34.3c1.1,7.6,1.7,18.6,1.4,33H617.3
	c0.7,16.7,6.5,28.3,17.4,35c6.7,4.1,14.6,6.2,23.9,6.2c9.9,0,17.9-2.5,24.1-7.6c3.3-2.7,6.3-6.6,8.9-11.4h44.3
	c-1.1,9.8-6.5,19.8-16,30c-14.9,16.1-35.7,24.2-62.4,24.2c-22.1,0-41.6-6.8-58.4-20.4c-16.9-13.6-25.3-35.8-25.3-66.5
	c0-28.8,7.6-50.8,22.9-66.1s35-23,59.4-23C670.2,87.9,683.2,90.5,694.8,95.7z M629.9,133.1c-6.1,6.3-10,14.9-11.6,25.7H693
	c-0.8-11.5-4.6-20.3-11.6-26.2c-6.9-6-15.5-8.9-25.7-8.9C644.6,123.7,636,126.8,629.9,133.1z M701.7,52.4h-97.5V75h97.5V52.4z"/>
<g>
	<path id="xing-icon_1_" class="st0" d="M197.9,371.1l-78.4-142.2L238.3,18h72.6L192.2,228.9l77.6,142.2H197.9z M92.5,87.9H19.8
		l40.7,70.8L0,265.5h72.3l60.6-107L92.5,87.9z"/>
</g>
<g>
	<path id="linkedin-icon_1_" class="st0" d="M871.2,33.9c0,17.8-14.3,32.3-32,32.3c-17.7,0-32-14.5-32-32.3s14.3-32.3,32-32.3
		C856.8,1.6,871.2,16.1,871.2,33.9z M866.5,89h-54.1v174.9h54.1V89z M953,89h-51.9v174.9H953c0,0,0-64.9,0-91.8
		c0-24.6,11.3-39.2,33-39.2c19.9,0,29.5,14.1,29.5,39.2s0,91.8,0,91.8h53.9c0,0,0-63.9,0-110.7s-26.5-69.5-63.6-69.5
		S953,112.6,953,112.6L953,89L953,89z"/>
</g>
</svg>
